<svg width="22" height="22" viewBox="0 0 22 22" fill="none" xmlns="http://www.w3.org/2000/svg">
<path d="M18.9114 12.6216H14.7114C14.1579 12.6239 13.6278 12.8448 13.2366 13.2363C12.8454 13.6277 12.6247 14.1579 12.6227 14.7113V18.9113C12.6224 19.1857 12.6762 19.4574 12.7811 19.711C12.886 19.9645 13.0398 20.1949 13.2338 20.3889C13.4278 20.5829 13.6582 20.7367 13.9117 20.8416C14.1653 20.9465 14.437 21.0003 14.7114 21H18.9114C19.4652 20.9997 19.9963 20.7796 20.3879 20.3879C20.7796 19.9963 20.9997 19.4652 21 18.9113V14.7113C21.0003 14.437 20.9465 14.1653 20.8416 13.9117C20.7367 13.6582 20.5829 13.4278 20.3889 13.2338C20.1949 13.0398 19.9645 12.886 19.711 12.7811C19.4574 12.6762 19.1857 12.6224 18.9114 12.6227M18.9114 1H3.08865C2.81429 0.999717 2.54256 1.05355 2.28902 1.15841C2.03549 1.26327 1.80512 1.41711 1.61112 1.61112C1.41711 1.80512 1.26328 2.03549 1.15841 2.28902C1.05355 2.54256 0.999718 2.81428 1 3.08865V7.28865C0.999576 7.5631 1.0533 7.83495 1.1581 8.08861C1.2629 8.34227 1.41672 8.57276 1.61074 8.76688C1.80476 8.961 2.03517 9.11493 2.28877 9.21987C2.54238 9.3248 2.81419 9.37866 3.08865 9.37838H18.9114C19.1857 9.37866 19.4574 9.32483 19.711 9.21997C19.9645 9.1151 20.1949 8.96127 20.3889 8.76726C20.5829 8.57326 20.7367 8.34289 20.8416 8.08936C20.9465 7.83582 21.0003 7.56409 21 7.28973V3.08865C21.0003 2.81428 20.9465 2.54256 20.8416 2.28902C20.7367 2.03549 20.5829 1.80512 20.3889 1.61112C20.1949 1.41711 19.9645 1.26327 19.711 1.15841C19.4574 1.05355 19.1857 0.999717 18.9114 1ZM7.28865 12.6216H3.08865C2.81419 12.6213 2.54238 12.6752 2.28877 12.7801C2.03517 12.8851 1.80476 13.039 1.61074 13.2331C1.41672 13.4272 1.2629 13.6577 1.1581 13.9114C1.0533 14.165 0.999576 14.4369 1 14.7113V18.9113C0.999718 19.1857 1.05355 19.4574 1.15841 19.711C1.26328 19.9645 1.41711 20.1949 1.61112 20.3889C1.80512 20.5829 2.03549 20.7367 2.28902 20.8416C2.54256 20.9465 2.81429 21.0003 3.08865 21H7.28865C7.56302 21.0003 7.83474 20.9465 8.08828 20.8416C8.34181 20.7367 8.57218 20.5829 8.76618 20.3889C8.96019 20.1949 9.11403 19.9645 9.21889 19.711C9.32375 19.4574 9.37758 19.1857 9.3773 18.9113V14.7113C9.37531 14.1579 9.15465 13.6277 8.76341 13.2363C8.37218 12.8448 7.84208 12.6239 7.28865 12.6216Z" stroke="white" stroke-width="1.75" stroke-linecap="round" stroke-linejoin="round"/>
</svg>
