<svg width="22" height="22" viewBox="0 0 22 22" fill="none" xmlns="http://www.w3.org/2000/svg">
<path d="M18.94 3.07474C18.1012 2.21136 17.0495 1.5845 15.8911 1.25744C14.7326 0.930374 13.5084 0.914673 12.3419 1.21192C11.1754 1.50917 10.108 2.10885 9.24737 2.95044C8.38672 3.79203 7.76329 4.84575 7.44 6.00527C7.00532 7.55918 7.13203 9.21656 7.79789 10.6863L1 17.5042V21H4.54105L4.20631 18.9053L6.27473 19.2526L8.03263 17.5042L7.69789 15.4095L9.77789 15.7442L11.3253 14.1947C12.7932 14.8611 14.4493 14.9878 16.0015 14.5523C17.5537 14.1169 18.9023 13.1474 19.8095 11.8147C20.7173 10.4814 21.1265 8.87084 20.9652 7.26584C20.8039 5.66084 20.0824 4.16394 18.9274 3.0379L18.94 3.07474Z" stroke="white" stroke-width="1.75" stroke-linecap="round" stroke-linejoin="round"/>
<path d="M16.2526 9.13683C15.8362 9.55841 15.2773 9.80923 14.6855 9.84011C14.0937 9.87098 13.5118 9.67969 13.0537 9.30373C12.5957 8.92778 12.2946 8.39428 12.2095 7.80784C12.1244 7.2214 12.2614 6.62432 12.5937 6.13367C12.7894 5.84149 13.0475 5.59633 13.3493 5.41585C13.6512 5.23537 13.9893 5.12406 14.3393 5.08993C14.6893 5.05581 15.0426 5.09971 15.3736 5.21849C15.7046 5.33726 16.0052 5.52795 16.2537 5.77683C16.6947 6.22481 16.9418 6.82822 16.9418 7.45683C16.9418 8.08545 16.6936 8.68886 16.2526 9.13683Z" stroke="white" stroke-width="1.75" stroke-linecap="round" stroke-linejoin="round"/>
</svg>
